#N canvas 433 331 1201 646 10;
#X obj 255 387 osc~;
#X obj 255 358 +~;
#X floatatom 255 187 5 0 0 0 - - -;
#X obj 270 281 osc~;
#X floatatom 270 228 5 0 0 0 - - -;
#X obj 270 319 *~;
#X floatatom 394 303 5 0 0 0 - - -;
#X obj 642 425 line;
#X msg 642 401 1 \, 0 500;
#X obj 393 131 random 300;
#X obj 470 211 random 600;
#X obj 255 134 random 300 1500;
#X obj 255 442 *~ 0.2;
#X obj 468 18 inlet;
#X obj 255 504 outlet~;
#X text 406 0 key press trigger;
#X text 172 187 Carrier freq;
#X text 291 209 Modulating freq;
#X text 429 291 Modulating Depth/Index;
#X text 432 306 (vibrato-esque texture);
#X text 714 400 determines duration of beep/boop;
#X text 551 152 random numbers used to generate a random sound on key
press;
#X text 707 3 BASIC FREQUENCY MODULATION SYNTHESIS;
#X obj 255 469 *~ 0.2;
#X connect 0 0 12 0;
#X connect 1 0 0 0;
#X connect 2 0 1 0;
#X connect 3 0 5 0;
#X connect 4 0 3 0;
#X connect 5 0 1 1;
#X connect 6 0 5 1;
#X connect 7 0 12 1;
#X connect 8 0 7 0;
#X connect 9 0 6 0;
#X connect 10 0 4 0;
#X connect 11 0 2 0;
#X connect 12 0 23 0;
#X connect 13 0 8 0;
#X connect 13 0 10 0;
#X connect 13 0 9 0;
#X connect 13 0 11 0;
#X connect 23 0 14 0;
