#N canvas 0 22 960 1114 10;
#X obj 837 -324 loadbang;
#X obj 837 -293 s load;
#X obj 499 53 *~;
#X obj 550 -14 *~;
#X obj 248 -32 osc~;
#X obj 251 -64 hsl 128 15 110 220 0 0 empty empty empty -2 -8 0 10
-262144 -1 -1 2413 1;
#X floatatom 498 -142 5 0 0 0 - - -;
#X obj 248 -97 line;
#X obj 498 -172 line;
#X msg 498 -210 107 \, 307 1000;
#X msg 606 -210 340 \, 107 1000;
#X obj 499 13 osc~;
#X obj 576 61 osc~;
#X obj 576 9 r load;
#X msg 199 -81 110;
#X obj 199 -110 r load;
#X obj 248 0 delwrite~ a 3000;
#X obj 249 29 delread~ a 2000;
#X obj 277 55 delread~ a 1500;
#X obj 296 85 delread~ a 2500;
#X obj 565 -64 r load;
#X obj 248 274 hip~;
#X obj 550 -95 osc~ 0.1;
#X obj 452 -118 pink~;
#X msg 576 36 80;
#X obj 576 85 *~ 0.1;
#X msg 248 -150 110 \, 220 10000;
#X msg 349 -150 220 \, 110 10000;
#X msg 269 241 250;
#X obj 269 209 r load;
#X obj 248 143 *~ 0.2;
#X obj 499 102 *~ 0.2;
#X obj 452 -83 *~ 0.05;
#X obj 248 -190 inlet;
#X obj 248 357 outlet~;
#X obj 349 -189 inlet;
#X obj 498 -243 inlet;
#X obj 606 -238 inlet;
#X obj 506 -115 outlet;
#X obj 312 -38 outlet;
#X msg 565 -39 1;
#X text 132 -313 MATERIALISATION ENGINE (materalisation/dematerialisation
with cruise control);
#X text 202 -209 key press trigger;
#X text 325 -208 key press trigger;
#X text 462 -259 key press trigger;
#X text 576 -256 key press trigger;
#X text 701 -212 flucuation when changing cruise state;
#X text 352 -102 background noise;
#X text 619 -55 amplitude modulation;
#X text 614 51 underlying base oscillator;
#X text 9 273 hi-pass used for less bass driven sound;
#X text 20 23 multitap delay for resonating sound;
#X text 17 43 mimics engine power increase/decrease;
#X text 544 -133 varying frequency;
#X text 135 -34 engine frequency;
#X text 299 355 output signal;
#X connect 0 0 1 0;
#X connect 2 0 31 0;
#X connect 3 0 2 1;
#X connect 4 0 16 0;
#X connect 5 0 4 0;
#X connect 5 0 39 0;
#X connect 6 0 11 0;
#X connect 6 0 38 0;
#X connect 7 0 5 0;
#X connect 8 0 6 0;
#X connect 9 0 8 0;
#X connect 10 0 8 0;
#X connect 11 0 2 0;
#X connect 12 0 25 0;
#X connect 13 0 24 0;
#X connect 14 0 5 0;
#X connect 15 0 14 0;
#X connect 17 0 30 0;
#X connect 18 0 30 0;
#X connect 19 0 30 0;
#X connect 20 0 40 0;
#X connect 21 0 34 0;
#X connect 22 0 3 0;
#X connect 23 0 32 0;
#X connect 24 0 12 0;
#X connect 25 0 31 0;
#X connect 26 0 7 0;
#X connect 27 0 7 0;
#X connect 28 0 21 1;
#X connect 29 0 28 0;
#X connect 30 0 21 0;
#X connect 31 0 34 0;
#X connect 32 0 2 0;
#X connect 33 0 26 0;
#X connect 35 0 27 0;
#X connect 36 0 9 0;
#X connect 37 0 10 0;
#X connect 40 0 3 1;
