#N canvas 1023 126 816 762 10;
#X obj 167 62 inlet;
#X obj 347 59 inlet;
#X obj 521 62 inlet;
#X obj 47 47 inlet~;
#X obj 43 589 outlet~;
#X obj 44 386 freeverb~;
#X msg 168 113 roomsize \$1;
#X msg 347 108 damping \$1;
#X msg 523 111 wet \$1;
#X msg 584 154 dry \$1;
#X obj 583 111 expr 1-$f1;
#X text 34 30 signal inlet;
#X text 152 26 ROOMSIZE;
#X text 516 23 WET/DRY RATIO;
#X text 355 23 DAMPING;
#X text 106 385 reverb object;
#X text 135 39 size of TARDIS console room;
#X text 317 39 console room absorption;
#X text 501 39 emptiness of console room;
#X text 39 3 REVERBERATION OF ENVIRONMENT;
#X text 640 130 caluates wet to dry ratio;
#X text 91 588 output signal (input signal processed);
#X connect 0 0 6 0;
#X connect 1 0 7 0;
#X connect 2 0 10 0;
#X connect 2 0 8 0;
#X connect 3 0 5 0;
#X connect 5 0 4 0;
#X connect 6 0 5 0;
#X connect 7 0 5 0;
#X connect 8 0 5 0;
#X connect 9 0 5 0;
#X connect 10 0 9 0;
