#N canvas 0 22 1920 1114 10;
#X obj 608 56 inlet;
#X obj 316 369 readsf~;
#X obj 316 145 bng 15 250 50 0 empty empty empty 17 7 0 10 -262144
-1 -1;
#X msg 315 284 open jarScraping.wav \, 4;
#X obj 610 261 line;
#X floatatom 610 294 5 0 0 0 - - -;
#X obj 757 497 inlet;
#X obj 788 535 inlet;
#X obj 835 568 inlet;
#X obj 543 1037 outlet~;
#X obj 1284 32 loadbang;
#X msg 608 167 12 0 \, 18 1400 0;
#X msg 714 216 18 0 \, 12 1400 0;
#X obj 714 116 del 1400;
#X obj 1284 78 s load;
#X obj 740 179 r load;
#X obj 623 129 r load;
#X obj 332 256 r load;
#X obj 154 314 readsf~;
#X obj 207 256 r load;
#X msg 154 283 open coinScraping.wav \, 4;
#X floatatom 247 335 5 0 0 0 - - -;
#X obj 247 310 + 8;
#X obj 543 951 *~ 0.7;
#X text 165 450 refer to pitchShift abstraction for more details;
#X text 1284 9 load messages once patch loads;
#X text 325 229 load audio sample;
#X text 10 314 read sound file object;
#X text 725 140 delay to trigger second message;
#X text 538 1062 signal output;
#X text 798 491 console room size;
#X text 876 562 console room emptiness (wet/dry);
#X text 827 533 console room dampness;
#X text 374 167 preset value for audio pitch shifting;
#X text 603 38 key press trigger;
#X obj 1001 757 ringModulator;
#X obj 543 987 *~ 1;
#X obj 1174 851 bng 15 250 50 0 empty empty empty 17 7 0 10 -262144
-1 -1;
#X obj 1174 885 tgl 15 0 empty empty empty 17 7 0 10 -262144 -1 -1
1 1;
#X floatatom 1175 1003 5 0 0 0 - - -;
#X obj 1001 724 inlet;
#X text 1039 720 control over ring modulation;
#X text 838 752 ring modulator abstraction;
#X obj 1174 809 inlet;
#X text 1180 791 key press trigger;
#X text 1216 885 switch to add or not add ring modulator;
#X text 1353 956 if toggle is off \, do not add ring modulation;
#X text 1353 933 if toggle is on \, add ring modulation;
#X text 1212 1005 final volume level output;
#X text 819 215 preset value for audio pitch shifting;
#X text 700 801 reverberation abstraction;
#X text 250 11 TIME ROTAR (CENTER ELEMENT OF CONSOLE AS SEEN ON THE
SHOW);
#X obj 316 408 pitchShiftScrape;
#X obj 545 802 reverberation;
#X obj 154 429 pitchShiftScrape;
#X obj 1174 937 expr if($f1<=0 \, $f1+0 \, 1.7);
#X obj 607 1020 *~ 0;
#X obj 607 968 *~;
#X connect 0 0 2 0;
#X connect 0 0 11 0;
#X connect 0 0 13 0;
#X connect 1 0 52 0;
#X connect 2 0 3 0;
#X connect 2 0 20 0;
#X connect 3 0 1 0;
#X connect 4 0 5 0;
#X connect 5 0 22 0;
#X connect 5 0 52 1;
#X connect 6 0 53 1;
#X connect 7 0 53 2;
#X connect 8 0 53 3;
#X connect 10 0 14 0;
#X connect 11 0 4 0;
#X connect 12 0 4 0;
#X connect 13 0 12 0;
#X connect 15 0 12 0;
#X connect 16 0 11 0;
#X connect 17 0 3 0;
#X connect 18 0 54 0;
#X connect 19 0 20 0;
#X connect 20 0 18 0;
#X connect 21 0 54 1;
#X connect 22 0 21 0;
#X connect 23 0 36 0;
#X connect 23 0 57 0;
#X connect 35 0 57 1;
#X connect 36 0 9 0;
#X connect 37 0 38 0;
#X connect 38 0 55 0;
#X connect 39 0 56 1;
#X connect 40 0 35 0;
#X connect 43 0 37 0;
#X connect 52 0 53 0;
#X connect 53 0 23 0;
#X connect 54 0 53 0;
#X connect 55 0 39 0;
#X connect 56 0 9 0;
#X connect 57 0 56 0;
